<svg xmlns="http://www.w3.org/2000/svg" viewBox="0 0 120 320"><defs><linearGradient id="lv" x1="0" y1="0" x2="0" y2="1"><stop offset="0" stop-color="#B7A2F3"></stop><stop offset="1" stop-color="#6B46C1"></stop></linearGradient><linearGradient id="gl" x1="0" x2="1"><stop offset="0" stop-color="#2E7D32"></stop><stop offset="1" stop-color="#9CCC65"></stop></linearGradient></defs><path d="M60 318 C 57 220, 64 120, 60 12" stroke="#4E7A34" stroke-width="2.5" fill="none" stroke-linecap="round"></path><ellipse cx="53" cy="24" rx="5" ry="8" transform="rotate(-28 53 24)" fill="url(#lv)" opacity="0.75"></ellipse><ellipse cx="67" cy="38" rx="5.35" ry="8.56" transform="rotate(28 67 38)" fill="url(#lv)" opacity="0.77"></ellipse><ellipse cx="53" cy="52" rx="5.7" ry="9.120000000000001" transform="rotate(-28 53 52)" fill="url(#lv)" opacity="0.79"></ellipse><ellipse cx="67" cy="66" rx="6.05" ry="9.68" transform="rotate(28 67 66)" fill="url(#lv)" opacity="0.81"></ellipse><ellipse cx="53" cy="80" rx="6.4" ry="10.240000000000002" transform="rotate(-28 53 80)" fill="url(#lv)" opacity="0.83"></ellipse><ellipse cx="67" cy="94" rx="6.75" ry="10.8" transform="rotate(28 67 94)" fill="url(#lv)" opacity="0.85"></ellipse><ellipse cx="53" cy="108" rx="7.1" ry="11.36" transform="rotate(-28 53 108)" fill="url(#lv)" opacity="0.87"></ellipse><ellipse cx="67" cy="122" rx="7.449999999999999" ry="11.92" transform="rotate(28 67 122)" fill="url(#lv)" opacity="0.89"></ellipse><ellipse cx="53" cy="136" rx="7.8" ry="12.48" transform="rotate(-28 53 136)" fill="url(#lv)" opacity="0.91"></ellipse><ellipse cx="67" cy="150" rx="8.15" ry="13.040000000000001" transform="rotate(28 67 150)" fill="url(#lv)" opacity="0.9299999999999999"></ellipse><ellipse cx="53" cy="164" rx="8.5" ry="13.600000000000001" transform="rotate(-28 53 164)" fill="url(#lv)" opacity="0.95"></ellipse><ellipse cx="67" cy="178" rx="8.85" ry="14.16" transform="rotate(28 67 178)" fill="url(#lv)" opacity="0.97"></ellipse><path d="M60 270 C 30 250, 18 220, 14 196 C 34 214, 52 236, 60 262 Z" fill="url(#gl)"></path><path d="M61 250 C 90 232, 102 204, 106 180 C 86 198, 68 220, 61 244 Z" fill="url(#gl)"></path></svg>